<svg xmlns="http://www.w3.org/2000/svg" xmlns:xlink="http://www.w3.org/1999/xlink" width="1920" height="1080" viewBox="0 0 1920 1080"><defs><style>.a{clip-path:url(#f);}.b,.d,.e,.g{stroke:#707070;}.b,.d,.e{stroke-width:5px;}.b{fill:url(#a);}.c{fill:#fff;}.d{fill:#d5d5d7;}.e,.g,.j,.k,.n{fill:none;}.f,.o{fill:#707070;}.f{font-size:117px;font-family:OpenSans-Bold, Open Sans;font-weight:700;letter-spacing:0.041em;}.g,.k{stroke-width:10px;}.h{fill:#ddbfbf;}.i{fill:#eca8a8;}.j{stroke:#b59f9f;stroke-width:13px;}.k{stroke:#ddbfbf;}.l{stroke:#f5f5f5;stroke-width:2px;fill:url(#b);}.m,.o{stroke:none;}.p{fill:#f5f5f5;}.q{filter:url(#c);}</style><linearGradient id="a" x1="-0.506" y1="0.5" x2="0.713" y2="0.5" gradientUnits="objectBoundingBox"><stop offset="0" stop-color="#c5c5cb"/><stop offset="1" stop-color="#7b7b7c"/></linearGradient><linearGradient id="b" x1="0.5" x2="0.5" y2="1" gradientUnits="objectBoundingBox"><stop offset="0" stop-color="#ffec00"/><stop offset="1" stop-color="#ddeb06"/></linearGradient><filter id="c" x="1324.719" y="396.393" width="418.286" height="611.316" filterUnits="userSpaceOnUse"><feOffset dx="13" dy="12" input="SourceAlpha"/><feGaussianBlur stdDeviation="4" result="d"/><feFlood flood-opacity="0.161"/><feComposite operator="in" in2="d"/><feComposite in="SourceGraphic"/></filter><clipPath id="f"><rect width="1920" height="1080"/></clipPath></defs><g id="e" class="a"><rect class="p" width="1920" height="1080"/><g transform="translate(-67 -34.996)"><g class="b" transform="translate(488 462.996)"><path class="m" d="M0,0H130a0,0,0,0,1,0,0V392a47,47,0,0,1-47,47H47A47,47,0,0,1,0,392V0A0,0,0,0,1,0,0Z"/><path class="n" d="M5,2.5H125A2.5,2.5,0,0,1,127.5,5V392A44.5,44.5,0,0,1,83,436.5H47A44.5,44.5,0,0,1,2.5,392V5A2.5,2.5,0,0,1,5,2.5Z"/></g><g class="c" transform="translate(599.176 246)"><path class="m" d="M 933.5247192382813 655.470947265625 L 60.26160430908203 655.470947265625 C 50.63816452026367 655.470947265625 2.387221097946167 655.468505859375 -25.85265350341797 655.467041015625 C -17.02082061767578 651.203857421875 -8.847049713134766 644.5347900390625 -1.539144277572632 635.6268310546875 L -1.392894268035889 635.4484252929688 L -1.281644344329834 635.2462768554688 C 9.113980293273926 616.3526611328125 9.101981163024902 605.2894287109375 9.096981048583984 600.5653076171875 L 9.096731185913086 600.2758178710938 L 9.096731185913086 600.2642822265625 L 9.09660530090332 600.2529296875 L 3.61822772026062 2.495944499969482 L 778.2941284179688 2.500922441482544 L 933.5247192382813 133.5023498535156 L 933.5247192382813 655.470947265625 Z"/><path class="o" d="M 6.14111328125 4.9959716796875 L 11.59649658203125 600.2299194335938 L 11.59674072265625 600.2529296875 L 11.59674072265625 600.2758178710938 L 11.59698486328125 600.5624389648438 C 11.60223388671875 605.4791870117188 11.6146240234375 616.993408203125 0.90875244140625 636.451416015625 L 0.68621826171875 636.8556518554688 L 0.39361572265625 637.21240234375 C -5.305908203125 644.159912109375 -11.0770263671875 649.2465209960938 -16.5408935546875 652.967529296875 C 11.9288330078125 652.968994140625 51.63031005859375 652.970947265625 60.261474609375 652.970947265625 L 931.0247192382813 652.970947265625 L 931.0247192382813 134.6637573242188 L 777.3802490234375 5.00091552734375 L 6.14111328125 4.9959716796875 M 1.0950927734375 -0.00408935546875 L 779.2081298828125 0.00091552734375 L 936.0247192382813 132.3408203125 L 936.0247192382813 657.970947265625 L 60.261474609375 657.970947265625 C 47.7440185546875 657.970947265625 -30.12359619140625 657.966796875 -44.304931640625 657.966064453125 C -38.2296142578125 657.678466796875 -20.61419677734375 654.9367065429688 -3.4720458984375 634.0411987304688 C 6.83111572265625 615.3153076171875 6.59674072265625 604.7503051757813 6.59674072265625 600.2758178710938 L 1.0950927734375 -0.00408935546875 Z M -46.5205078125 657.9659423828125 C -46.5205078125 657.9659423828125 -45.73724365234375 657.9659423828125 -44.304931640625 657.966064453125 C -44.7796630859375 657.988525390625 -45.18365478515625 657.9960327148438 -45.51171875 657.9960327148438 C -46.16845703125 657.9960327148438 -46.5205078125 657.9659423828125 -46.5205078125 657.9659423828125 Z"/></g><g transform="translate(-31.569 -2.005)"><path class="d" d="M3223.82,1416v131.183h154.239" transform="translate(-1813.592 -1165.357)"/><line class="e" x2="154.398" y2="131.326" transform="translate(1410.069 250.501)"/></g><g transform="translate(687.104 303.289)"><text class="f" transform="translate(170.016 125)"><tspan x="0" y="0">NEWS</tspan></text><line class="g" x2="680.64" transform="translate(0 0.614)"/><line class="g" x2="680.64" transform="translate(0 160.196)"/></g><rect class="h" width="308" height="126" transform="translate(677 711.996)"/><rect class="i" width="351" height="119" transform="translate(1123 547.996)"/><g transform="translate(643.975 548.593)"><line class="j" x2="397.728" transform="translate(0 0)"/><g transform="translate(0 36.827)"><line class="k" x2="397.728"/><line class="k" x2="397.728" transform="translate(0 40.509)"/><line class="k" x2="397.728" transform="translate(0 81.019)"/></g></g><g transform="translate(1062.204 726.589)"><line class="k" x2="433.081" transform="translate(0 0)"/><line class="k" x2="433.081" transform="translate(0 47.875)"/><line class="k" x2="433.081" transform="translate(0 96.977)"/></g></g><g class="q" transform="matrix(1, 0, 0, 1, 0, 0)"><path class="l" d="M3288.485,1697l113.767-110.142-7.467,227.636,90.406-22.354-99.42,344.207L3368.359,1894.7l-81.781,49.086Z" transform="translate(-921.21 -2303.45) rotate(22)"/></g></g></svg>