<svg xmlns="http://www.w3.org/2000/svg" xmlns:xlink="http://www.w3.org/1999/xlink" width="1920" height="1080" viewBox="0 0 1920 1080"><defs><style>.a{clip-path:url(#b);}.b{fill:#ecdbdb;stroke-width:10px;}.b,.c{stroke:#707070;}.c,.d{fill:#fff;}.c{stroke-width:3px;}.e,.g{stroke:none;}.f{fill:none;}.g{fill:#707070;}.h{fill:#f5f5f5;}</style><clipPath id="b"><rect width="1920" height="1080"/></clipPath></defs><g id="a" class="a"><rect class="h" width="1920" height="1080"/><g class="b" transform="translate(628 208)"><circle class="e" cx="332" cy="332" r="332"/><circle class="f" cx="332" cy="332" r="327"/></g><g transform="translate(0 -24)"><g class="c" transform="translate(873 345)"><circle class="e" cx="87" cy="87" r="87"/><circle class="f" cx="87" cy="87" r="85.5"/></g><g class="d" transform="translate(801 517)"><path class="e" d="M 159.7255859375 264.3443603515625 C 143.3684234619141 264.3443603515625 125.6079177856445 263.2160034179688 106.9373321533203 260.99072265625 C 91.98999786376953 259.209228515625 76.43033599853516 256.7247314453125 60.69058227539063 253.6062164306641 C 33.87937545776367 248.2942199707031 15.60750007629395 242.9120941162109 15.4260835647583 242.8583526611328 L 15.21754169464111 242.7965545654297 L 15 242.7965545654297 C 7.556083202362061 242.7965545654297 1.5 237.4035186767578 1.5 230.7745971679688 L 1.5 66.70830535888672 C 1.5 57.92463684082031 3.408750057220459 49.40280532836914 7.173250198364258 41.37955474853516 C 8.984499931335449 37.51926422119141 11.22695827484131 33.79513931274414 13.83837509155273 30.31059646606445 C 16.42749977111816 26.85580444335938 19.4017505645752 23.60634613037109 22.67845916748047 20.65255546569824 C 25.95791625976563 17.69622230529785 29.56720924377441 15.01180553436279 33.40612411499023 12.67384719848633 C 37.28424835205078 10.31201362609863 41.43066787719727 8.283222198486328 45.73025131225586 6.643846988677979 C 54.68204116821289 3.23063850402832 64.19337463378906 1.500013470649719 74 1.500013470649719 L 244 1.500013470649719 C 253.8066253662109 1.500013470649719 263.3179626464844 3.23063850402832 272.2697448730469 6.643846988677979 C 276.5693359375 8.283222198486328 280.7157592773438 10.31201362609863 284.5938720703125 12.67384719848633 C 288.4328002929688 15.01180553436279 292.0420837402344 17.69622230529785 295.321533203125 20.65255546569824 C 298.5982360839844 23.60634613037109 301.572509765625 26.85580444335938 304.16162109375 30.31059646606445 C 306.7730407714844 33.79513931274414 309.0155029296875 37.51926422119141 310.8267517089844 41.37955474853516 C 314.5912475585938 49.40280532836914 316.5 57.92463684082031 316.5 66.70830535888672 L 316.5 230.7745971679688 C 316.5 237.4035186767578 310.4439086914063 242.7965545654297 303 242.7965545654297 L 302.7782592773438 242.7965545654297 L 302.5659484863281 242.8607177734375 C 302.3881530761719 242.9144744873047 284.4805908203125 248.2959747314453 258.0296630859375 253.6073913574219 C 242.50146484375 256.7255249023438 227.1105804443359 259.209716796875 212.2845764160156 260.9910583496094 C 193.7652893066406 263.2161254882813 176.0818786621094 264.3443603515625 159.7255859375 264.3443603515625 Z"/><path class="g" d="M 74 3 C 64.376708984375 3 55.045166015625 4.697540283203125 46.26467895507813 8.045440673828125 C 42.05029296875 9.652313232421875 37.98654174804688 11.64054870605469 34.18634033203125 13.95497131347656 C 30.427001953125 16.24447631835938 26.89309692382813 18.8726806640625 23.68280029296875 21.76667785644531 C 20.47802734375 24.6556396484375 17.56976318359375 27.8328857421875 15.03866577148438 31.21017456054688 C 12.48849487304688 34.61297607421875 10.299072265625 38.24880981445313 8.531219482421875 42.01667785644531 C 4.8609619140625 49.83905029296875 3 58.14651489257813 3 66.70826721191406 L 3 230.7745971679688 C 3 236.5764312744141 8.3831787109375 241.2965545654297 15 241.2965545654297 L 15.43508911132813 241.2966003417969 L 15.85208129882813 241.4201049804688 C 16.03311157226563 241.4737243652344 34.26641845703125 246.8433074951172 61.01828002929688 252.1420135498047 C 76.71604919433594 255.251220703125 92.23275756835938 257.7281799316406 107.1373748779297 259.5039672851563 C 125.7409210205078 261.720458984375 143.4341735839844 262.8443603515625 159.7255859375 262.8443603515625 C 176.0153350830078 262.8443603515625 193.6305847167969 261.7206726074219 212.08203125 259.5046081542969 C 226.8642883300781 257.7292175292969 242.2112884521484 255.2528533935547 257.6966247558594 252.1443481445313 C 284.0864868164063 246.8468475341797 301.9546203613281 241.4784698486328 302.1318359375 241.4249267578125 L 302.5564270019531 241.2965545654297 L 303 241.2965545654297 C 309.6168212890625 241.2965545654297 315 236.5764312744141 315 230.7745971679688 L 315 66.70826721191406 C 315 58.14651489257813 313.1390380859375 49.83905029296875 309.4687805175781 42.01667785644531 C 307.700927734375 38.24880981445313 305.5115051269531 34.61297607421875 302.9613342285156 31.21017456054688 C 300.4302368164063 27.8328857421875 297.52197265625 24.6556396484375 294.3171997070313 21.76667785644531 C 291.1069030761719 18.8726806640625 287.572998046875 16.24447631835938 283.8136596679688 13.95497131347656 C 280.0134582519531 11.64054870605469 275.94970703125 9.652313232421875 271.7353210449219 8.045440673828125 C 262.954833984375 4.697540283203125 253.623291015625 3 244 3 L 74 3 M 74 0 L 244 0 C 284.8690795898438 0 318 29.86630249023438 318 66.70826721191406 L 318 230.7745971679688 C 318 238.2425994873047 311.2842407226563 244.2965545654297 303 244.2965545654297 C 303 244.2965545654297 231.7255859375 265.8443603515625 159.7255859375 265.8443603515625 C 87.7255859375 265.8443603515625 15 244.2965545654297 15 244.2965545654297 C 6.7156982421875 244.2965545654297 0 238.2425994873047 0 230.7745971679688 L 0 66.70826721191406 C 0 29.86630249023438 33.13092041015625 0 74 0 Z"/></g></g></g></svg>