<svg xmlns="http://www.w3.org/2000/svg" xmlns:xlink="http://www.w3.org/1999/xlink" width="1920" height="1080" viewBox="0 0 1920 1080"><defs><style>.a,.d{fill:none;}.b{clip-path:url(#c);}.c,.f,.g{fill:#fff;}.c,.d,.f{stroke:#707070;}.c{stroke-width:30px;}.d{stroke-width:20px;}.e{clip-path:url(#a);}.f{stroke-width:5px;}.h,.i{stroke:none;}.i{fill:#707070;}.j{fill:#f5f5f5;}</style><clipPath id="a"><rect class="a" width="369.8" height="256.459"/></clipPath><clipPath id="c"><rect width="1920" height="1080"/></clipPath></defs><g id="b" class="b"><rect class="j" width="1920" height="1080"/><g transform="translate(-66 1.091)"><g transform="translate(714 207.909)"><g class="c" transform="translate(0 0)"><rect class="h" width="519.642" height="617.615" rx="44"/><rect class="a" x="15" y="15" width="489.642" height="587.615" rx="29"/></g><line class="d" x2="369.807" transform="translate(63.693 150.854)"/><path class="d" d="M0,0H366.343" transform="translate(63.693 224.782)"/><g class="e" transform="translate(63.394 286.235)"><g transform="translate(-838.5 -502.5)"><path class="d" d="M0,1,392,0" transform="translate(838.5 516.5)"/></g><g transform="translate(-838.5 -430.5)"><path class="d" d="M0,1,392,0" transform="translate(838.5 516.5)"/></g><g transform="translate(-838.5 -358.5)"><path class="d" d="M0,1,392,0" transform="translate(838.5 516.5)"/></g><g transform="translate(-838.5 -286.5)"><path class="d" d="M0,1,392,0" transform="translate(838.5 516.5)"/></g></g><line class="d" x2="369.807" transform="translate(63.693 89.854)"/></g></g><g transform="translate(881.358 682.987) rotate(-47)"><g class="f" transform="translate(68.696)"><rect class="h" width="416.609" height="76" rx="4"/><rect class="a" x="2.5" y="2.5" width="411.609" height="71" rx="1.5"/></g><g class="g" transform="translate(0 76) rotate(-90)"><path class="h" d="M 71.85427093505859 69.52018737792969 L 4.145719051361084 69.52018737792969 L 37.99997329711914 5.357256889343262 L 71.85427093505859 69.52018737792969 Z"/><path class="i" d="M 37.99997329711914 10.71453475952148 L 8.291458129882813 67.02017974853516 L 67.70853424072266 67.02017974853516 L 37.99997329711914 10.71453475952148 M 37.99997329711914 -7.62939453125e-06 L 76 72.02017974853516 L 0 72.02017974853516 L 37.99997329711914 -7.62939453125e-06 Z"/></g></g></g></svg>