<svg xmlns="http://www.w3.org/2000/svg" xmlns:xlink="http://www.w3.org/1999/xlink" width="1920" height="1080" viewBox="0 0 1920 1080"><defs><style>.a,.e,.h{fill:none;}.b{clip-path:url(#c);}.c,.d,.g{fill:#fff;}.c,.e,.g{stroke:#707070;}.c,.h{stroke-width:30px;}.e{stroke-width:20px;}.f{clip-path:url(#a);}.g{stroke-width:10px;}.h{stroke:#7a7a7a;stroke-linecap:round;}.i,.j{stroke:none;}.j{fill:#707070;}.k{fill:#f5f5f5;}</style><clipPath id="a"><rect class="a" width="369.8" height="256.459"/></clipPath><clipPath id="c"><rect width="1920" height="1080"/></clipPath></defs><g id="b" class="b"><rect class="k" width="1920" height="1080"/><g transform="translate(-66 1.091)"><g transform="translate(714 207.909)"><g class="c" transform="translate(0 0)"><path class="i" d="M44,0H288.642a231,231,0,0,1,231,231V573.615a44,44,0,0,1-44,44H44a44,44,0,0,1-44-44V44A44,44,0,0,1,44,0Z"/><path class="a" d="M44,15H288.642a216,216,0,0,1,216,216V573.615a29,29,0,0,1-29,29H44a29,29,0,0,1-29-29V44A29,29,0,0,1,44,15Z"/></g><g class="d" transform="translate(427.747 247.27) rotate(-138)"><path class="i" d="M 121.1578369140625 130.9364776611328 C 115.0657958984375 130.9364776611328 108.7028350830078 130.6856842041016 102.2456283569336 130.1910705566406 C 59.32421875 126.9032592773438 33.04855728149414 112.1812362670898 20.36808013916016 102.8078308105469 C 54.63643646240234 58.56818008422852 98.17228698730469 14.99998378753662 114.5476226806641 14.99998378753662 C 141.6640472412109 17.66944122314453 185.4187927246094 78.18502807617188 188.6058807373047 99.03877258300781 C 190.1135559082031 108.9037551879883 189.4937896728516 113.9491271972656 189.0353546142578 115.9852752685547 C 183.5489959716797 119.4739608764648 162.3994598388672 130.9364776611328 121.1578369140625 130.9364776611328 Z"/><path class="j" d="M 114.7991256713867 30.1685791015625 C 102.2026977539063 34.10603332519531 71.36630249023438 63.900146484375 42.606201171875 98.98210144042969 C 55.7862548828125 105.8788452148438 75.70462036132813 113.1140289306641 103.3911514282227 115.2348175048828 C 109.4689331054688 115.7003707885742 115.4464874267578 115.9364318847656 121.1578750610352 115.9364318847656 C 148.6834259033203 115.9364318847656 165.91552734375 110.4655380249023 174.423828125 106.7843475341797 C 174.3102416992188 105.2931594848633 174.1126403808594 103.4922790527344 173.7855377197266 101.3512573242188 C 170.7144775390625 84.30928039550781 133.2012329101563 34.29965972900391 114.7991256713867 30.1685791015625 M 114.5475997924805 -6.103515625e-05 C 115.1695327758789 -6.103515625e-05 115.7798461914063 0.0291290283203125 116.3789291381836 0.088531494140625 C 152.8673706054688 3.706817626953125 199.6227111816406 71.83654022216797 203.4337158203125 96.77265167236328 C 207.2447052001953 121.7088165283203 200.1721038818359 126.4559860229492 200.1721038818359 126.4559860229492 C 200.1721038818359 126.4559860229492 177.0768432617188 145.9364471435547 121.1578903198242 145.9364471435547 C 114.8873138427734 145.9364471435547 108.2098846435547 145.6918334960938 101.0999298095703 145.1472015380859 C 30.58576965332031 139.7458190917969 -1.52587890625e-05 104.8766479492188 -1.52587890625e-05 104.8766479492188 C -1.52587890625e-05 104.8766479492188 77.28913879394531 -6.103515625e-05 114.5475997924805 -6.103515625e-05 Z"/></g><line class="e" x2="212.251" transform="translate(63.693 150.854)"/><line class="e" x2="289.518" transform="translate(63.693 224.782)"/><g class="f" transform="translate(63.394 286.235)"><g transform="translate(-838.5 -502.5)"><path class="e" d="M0,1,392,0" transform="translate(838.5 516.5)"/></g><g transform="translate(-838.5 -430.5)"><path class="e" d="M0,1,392,0" transform="translate(838.5 516.5)"/></g><g transform="translate(-838.5 -358.5)"><path class="e" d="M0,1,392,0" transform="translate(838.5 516.5)"/></g><g transform="translate(-838.5 -286.5)"><path class="e" d="M0,1,392,0" transform="translate(838.5 516.5)"/></g></g></g><g transform="translate(1105.423 644.056)"><g class="g" transform="translate(-6 -12.869)"><circle class="i" cx="119.361" cy="119.361" r="119.361"/><circle class="a" cx="119.361" cy="119.361" r="114.361"/></g><g transform="translate(54.391 68.421)"><line class="h" y1="76.351" x2="76.351" transform="translate(40.952)"/><line class="h" x2="40.952" y2="40.952" transform="translate(0 35.399)"/></g></g></g></g></svg>